{
    "asset" : {
        "generator" : "Khronos glTF Blender I/O v1.5.17",
        "version" : "2.0"
    },
    "extensionsUsed" : [
        "KHR_materials_transmission"
    ],
    "scene" : 0,
    "scenes" : [
        {
            "name" : "Scene",
            "nodes" : [
                1
            ]
        }
    ],
    "nodes" : [
        {
            "mesh" : 0,
            "name" : "Nukleus",
            "scale" : [
                0.6666666865348816,
                0.6666666865348816,
                0.6666666865348816
            ]
        },
        {
            "children" : [
                0
            ],
            "mesh" : 1,
            "name" : "Membrane",
            "scale" : [
                1.5,
                1.5,
                1.5
            ]
        }
    ],
    "materials" : [
        {
            "doubleSided" : true,
            "name" : "Material.009",
            "pbrMetallicRoughness" : {
                "baseColorFactor" : [
                    0.8000000715255737,
                    0.17286162078380585,
                    0.6337797045707703,
                    1
                ],
                "metallicFactor" : 0,
                "roughnessFactor" : 0.10000000149011612
            }
        },
        {
            "alphaCutoff" : 0.5,
            "alphaMode" : "MASK",
            "doubleSided" : true,
            "extensions" : {
                "KHR_materials_transmission" : {
                    "transmissionFactor" : 1
                }
            },
            "name" : "Material.003",
            "pbrMetallicRoughness" : {
                "baseColorFactor" : [
                    0.8000000715255737,
                    0.31649431586265564,
                    0.6840895414352417,
                    1
                ],
                "metallicFactor" : 0,
                "roughnessFactor" : 0.14772728085517883
            }
        }
    ],
    "meshes" : [
        {
            "name" : "Cube",
            "primitives" : [
                {
                    "attributes" : {
                        "POSITION" : 0,
                        "NORMAL" : 1,
                        "TEXCOORD_0" : 2
                    },
                    "indices" : 3,
                    "material" : 0
                }
            ]
        },
        {
            "name" : "Cube.003",
            "primitives" : [
                {
                    "attributes" : {
                        "POSITION" : 4,
                        "NORMAL" : 5,
                        "TEXCOORD_0" : 6
                    },
                    "indices" : 3,
                    "material" : 1
                }
            ]
        }
    ],
    "accessors" : [
        {
            "bufferView" : 0,
            "componentType" : 5126,
            "count" : 6372,
            "max" : [
                0.8655605316162109,
                0.8637927174568176,
                0.884419322013855
            ],
            "min" : [
                -0.8762577772140503,
                -0.8863171339035034,
                -0.8825441598892212
            ],
            "type" : "VEC3"
        },
        {
            "bufferView" : 1,
            "componentType" : 5126,
            "count" : 6372,
            "type" : "VEC3"
        },
        {
            "bufferView" : 2,
            "componentType" : 5126,
            "count" : 6372,
            "type" : "VEC2"
        },
        {
            "bufferView" : 3,
            "componentType" : 5123,
            "count" : 36864,
            "type" : "SCALAR"
        },
        {
            "bufferView" : 4,
            "componentType" : 5126,
            "count" : 6372,
            "max" : [
                0.8655605316162109,
                0.8637927174568176,
                0.884419322013855
            ],
            "min" : [
                -0.8762577772140503,
                -0.8863171339035034,
                -0.8825441598892212
            ],
            "type" : "VEC3"
        },
        {
            "bufferView" : 5,
            "componentType" : 5126,
            "count" : 6372,
            "type" : "VEC3"
        },
        {
            "bufferView" : 6,
            "componentType" : 5126,
            "count" : 6372,
            "type" : "VEC2"
        }
    ],
    "bufferViews" : [
        {
            "buffer" : 0,
            "byteLength" : 76464,
            "byteOffset" : 0
        },
        {
            "buffer" : 0,
            "byteLength" : 76464,
            "byteOffset" : 76464
        },
        {
            "buffer" : 0,
            "byteLength" : 50976,
            "byteOffset" : 152928
        },
        {
            "buffer" : 0,
            "byteLength" : 73728,
            "byteOffset" : 203904
        },
        {
            "buffer" : 0,
            "byteLength" : 76464,
            "byteOffset" : 277632
        },
        {
            "buffer" : 0,
            "byteLength" : 76464,
            "byteOffset" : 354096
        },
        {
            "buffer" : 0,
            "byteLength" : 50976,
            "byteOffset" : 430560
        }
    ],
    "buffers" : [
        {
            "byteLength" : 481536,
            "uri" : "data:application/octet-stream;base64,"
        }
    ]
}
