{
    "asset" : {
        "generator" : "Khronos glTF Blender I/O v1.5.17",
        "version" : "2.0"
    },
    "extensionsUsed" : [
        "KHR_materials_clearcoat"
    ],
    "scene" : 0,
    "scenes" : [
        {
            "name" : "Scene",
            "nodes" : [
                0,
                1,
                2,
                3
            ]
        }
    ],
    "nodes" : [
        {
            "name" : "Light",
            "rotation" : [
                0.16907575726509094,
                0.7558803558349609,
                -0.27217137813568115,
                0.570947527885437
            ],
            "translation" : [
                4.076245307922363,
                5.903861999511719,
                -1.0054539442062378
            ]
        },
        {
            "name" : "Camera",
            "rotation" : [
                0.483536034822464,
                0.33687159419059753,
                -0.20870360732078552,
                0.7804827094078064
            ],
            "translation" : [
                7.358891487121582,
                4.958309173583984,
                6.925790786743164
            ]
        },
        {
            "mesh" : 0,
            "name" : "Rabbit_OBJ.001",
            "rotation" : [
                0.7071068286895752,
                0,
                0,
                0.7071067094802856
            ]
        },
        {
            "mesh" : 1,
            "name" : "Rabbit_OBJ.002",
            "rotation" : [
                0.7071068286895752,
                0,
                0,
                0.7071067094802856
            ],
            "scale" : [
                -0.6000000238418579,
                0.7199999690055847,
                0.6600000262260437
            ],
            "translation" : [
                0,
                0.19999998807907104,
                0
            ]
        }
    ],
    "materials" : [
        {
            "doubleSided" : true,
            "extensions" : {
                "KHR_materials_clearcoat" : {
                    "clearcoatFactor" : 0.2795454263687134,
                    "clearcoatRoughnessFactor" : 0.11590909212827682
                }
            },
            "name" : "Default OBJ",
            "pbrMetallicRoughness" : {
                "baseColorFactor" : [
                    0.3069961667060852,
                    0.11478544026613235,
                    0.12470130622386932,
                    1
                ],
                "metallicFactor" : 0.25984251499176025,
                "roughnessFactor" : 0
            }
        },
        {
            "doubleSided" : true,
            "name" : "Material.001",
            "pbrMetallicRoughness" : {
                "baseColorFactor" : [
                    0.11493203788995743,
                    0.055820874869823456,
                    0.07895804196596146,
                    1
                ],
                "metallicFactor" : 0,
                "roughnessFactor" : 0.5
            }
        }
    ],
    "meshes" : [
        {
            "name" : "Rabbit_OBJ.001",
            "primitives" : [
                {
                    "attributes" : {
                        "POSITION" : 0,
                        "NORMAL" : 1
                    },
                    "indices" : 2,
                    "material" : 0
                }
            ]
        },
        {
            "name" : "Rabbit_OBJ.002",
            "primitives" : [
                {
                    "attributes" : {
                        "POSITION" : 3,
                        "NORMAL" : 4
                    },
                    "indices" : 5,
                    "material" : 1
                }
            ]
        }
    ],
    "accessors" : [
        {
            "bufferView" : 0,
            "componentType" : 5126,
            "count" : 3649,
            "max" : [
                0.8443310260772705,
                1.9067153930664062,
                0.2730519473552704
            ],
            "min" : [
                -0.8585482239723206,
                -1.4371579885482788,
                -2.489103317260742
            ],
            "type" : "VEC3"
        },
        {
            "bufferView" : 1,
            "componentType" : 5126,
            "count" : 3649,
            "type" : "VEC3"
        },
        {
            "bufferView" : 2,
            "componentType" : 5123,
            "count" : 19830,
            "type" : "SCALAR"
        },
        {
            "bufferView" : 3,
            "componentType" : 5126,
            "count" : 106,
            "max" : [
                0.8158098459243774,
                1.3318425416946411,
                0.26487845182418823
            ],
            "min" : [
                -0.8108715415000916,
                -1.4335740804672241,
                -1.4595649242401123
            ],
            "type" : "VEC3"
        },
        {
            "bufferView" : 4,
            "componentType" : 5126,
            "count" : 106,
            "type" : "VEC3"
        },
        {
            "bufferView" : 5,
            "componentType" : 5123,
            "count" : 339,
            "type" : "SCALAR"
        }
    ],
    "bufferViews" : [
        {
            "buffer" : 0,
            "byteLength" : 43788,
            "byteOffset" : 0
        },
        {
            "buffer" : 0,
            "byteLength" : 43788,
            "byteOffset" : 43788
        },
        {
            "buffer" : 0,
            "byteLength" : 39660,
            "byteOffset" : 87576
        },
        {
            "buffer" : 0,
            "byteLength" : 1272,
            "byteOffset" : 127236
        },
        {
            "buffer" : 0,
            "byteLength" : 1272,
            "byteOffset" : 128508
        },
        {
            "buffer" : 0,
            "byteLength" : 678,
            "byteOffset" : 129780
        }
    ],
    "buffers" : [
        {
            "byteLength" : 130460,
            "uri" : "data:application/octet-stream;base64,"
        }
    ]
}
