{
    "asset" : {
        "generator" : "Khronos glTF Blender I/O v1.5.17",
        "version" : "2.0"
    },
    "extensionsUsed" : [
        "KHR_materials_transmission"
    ],
    "scene" : 0,
    "scenes" : [
        {
            "name" : "Scene",
            "nodes" : [
                0,
                2,
                3,
                4
            ]
        }
    ],
    "nodes" : [
        {
            "name" : "Light",
            "rotation" : [
                0.16907575726509094,
                0.7558803558349609,
                -0.27217137813568115,
                0.570947527885437
            ],
            "translation" : [
                2.843240737915039,
                5.903861999511719,
                -1.0054539442062378
            ]
        },
        {
            "mesh" : 0,
            "name" : "Nukleus",
            "scale" : [
                0.6666666865348816,
                0.6666666865348816,
                0.6666666865348816
            ]
        },
        {
            "children" : [
                1
            ],
            "mesh" : 1,
            "name" : "Membrane",
            "scale" : [
                1.5,
                1.5,
                1.5
            ],
            "translation" : [
                -1.2330045700073242,
                0,
                0
            ]
        },
        {
            "mesh" : 2,
            "name" : "Nukleus_Cube",
            "rotation" : [
                0.7071068286895752,
                0,
                0,
                0.7071067094802856
            ],
            "translation" : [
                1.3126544952392578,
                0,
                0
            ]
        },
        {
            "mesh" : 3,
            "name" : "Membrane_Cube.003",
            "rotation" : [
                0.7071068286895752,
                0,
                0,
                0.7071067094802856
            ],
            "translation" : [
                1.3126544952392578,
                0,
                0
            ]
        }
    ],
    "materials" : [
        {
            "doubleSided" : true,
            "name" : "Material.009",
            "pbrMetallicRoughness" : {
                "baseColorFactor" : [
                    0.8000000715255737,
                    0.17286162078380585,
                    0.6337797045707703,
                    1
                ],
                "metallicFactor" : 0,
                "roughnessFactor" : 0.10000000149011612
            }
        },
        {
            "alphaCutoff" : 0.5,
            "alphaMode" : "MASK",
            "doubleSided" : true,
            "extensions" : {
                "KHR_materials_transmission" : {
                    "transmissionFactor" : 1
                }
            },
            "name" : "Material.003",
            "pbrMetallicRoughness" : {
                "baseColorFactor" : [
                    0.8000000715255737,
                    0.31649431586265564,
                    0.6840895414352417,
                    1
                ],
                "metallicFactor" : 0,
                "roughnessFactor" : 0.14772728085517883
            }
        },
        {
            "doubleSided" : true,
            "name" : "Material.010",
            "pbrMetallicRoughness" : {
                "baseColorFactor" : [
                    0.800000011920929,
                    0.1728619933128357,
                    0.6337800025939941,
                    1
                ],
                "metallicFactor" : 0,
                "roughnessFactor" : 0.10000000149011612
            }
        },
        {
            "alphaCutoff" : 0.5,
            "alphaMode" : "MASK",
            "doubleSided" : true,
            "extensions" : {
                "KHR_materials_transmission" : {
                    "transmissionFactor" : 1
                }
            },
            "name" : "Material.011",
            "pbrMetallicRoughness" : {
                "baseColorFactor" : [
                    0.800000011920929,
                    0.3164939880371094,
                    0.6840900182723999,
                    1
                ],
                "metallicFactor" : 0,
                "roughnessFactor" : 0.14772728085517883
            }
        }
    ],
    "meshes" : [
        {
            "name" : "Cube",
            "primitives" : [
                {
                    "attributes" : {
                        "POSITION" : 0,
                        "NORMAL" : 1,
                        "TEXCOORD_0" : 2
                    },
                    "indices" : 3,
                    "material" : 0
                }
            ]
        },
        {
            "name" : "Cube.003",
            "primitives" : [
                {
                    "attributes" : {
                        "POSITION" : 4,
                        "NORMAL" : 5,
                        "TEXCOORD_0" : 6
                    },
                    "indices" : 3,
                    "material" : 1
                }
            ]
        },
        {
            "name" : "Nukleus_Cube",
            "primitives" : [
                {
                    "attributes" : {
                        "POSITION" : 7,
                        "NORMAL" : 8,
                        "TEXCOORD_0" : 9
                    },
                    "indices" : 10,
                    "material" : 2
                }
            ]
        },
        {
            "name" : "Membrane_Cube.003",
            "primitives" : [
                {
                    "attributes" : {
                        "POSITION" : 11,
                        "NORMAL" : 12,
                        "TEXCOORD_0" : 13
                    },
                    "indices" : 10,
                    "material" : 3
                }
            ]
        }
    ],
    "accessors" : [
        {
            "bufferView" : 0,
            "componentType" : 5126,
            "count" : 6372,
            "max" : [
                0.8655605316162109,
                0.8637927174568176,
                0.884419322013855
            ],
            "min" : [
                -0.8762577772140503,
                -0.8863171339035034,
                -0.8825441598892212
            ],
            "type" : "VEC3"
        },
        {
            "bufferView" : 1,
            "componentType" : 5126,
            "count" : 6372,
            "type" : "VEC3"
        },
        {
            "bufferView" : 2,
            "componentType" : 5126,
            "count" : 6372,
            "type" : "VEC2"
        },
        {
            "bufferView" : 3,
            "componentType" : 5123,
            "count" : 36864,
            "type" : "SCALAR"
        },
        {
            "bufferView" : 4,
            "componentType" : 5126,
            "count" : 6372,
            "max" : [
                0.8655605316162109,
                0.8637927174568176,
                0.884419322013855
            ],
            "min" : [
                -0.8762577772140503,
                -0.8863171339035034,
                -0.8825441598892212
            ],
            "type" : "VEC3"
        },
        {
            "bufferView" : 5,
            "componentType" : 5126,
            "count" : 6372,
            "type" : "VEC3"
        },
        {
            "bufferView" : 6,
            "componentType" : 5126,
            "count" : 6372,
            "type" : "VEC2"
        },
        {
            "bufferView" : 7,
            "componentType" : 5126,
            "count" : 6369,
            "max" : [
                0.8655610084533691,
                0.8844190239906311,
                0.8863170146942139
            ],
            "min" : [
                -0.8762580156326294,
                -0.8825439810752869,
                -0.8637930154800415
            ],
            "type" : "VEC3"
        },
        {
            "bufferView" : 8,
            "componentType" : 5126,
            "count" : 6369,
            "type" : "VEC3"
        },
        {
            "bufferView" : 9,
            "componentType" : 5126,
            "count" : 6369,
            "type" : "VEC2"
        },
        {
            "bufferView" : 10,
            "componentType" : 5123,
            "count" : 36864,
            "type" : "SCALAR"
        },
        {
            "bufferView" : 11,
            "componentType" : 5126,
            "count" : 6369,
            "max" : [
                1.2983410358428955,
                1.3266290426254272,
                1.329475998878479
            ],
            "min" : [
                -1.3143869638442993,
                -1.323815941810608,
                -1.2956889867782593
            ],
            "type" : "VEC3"
        },
        {
            "bufferView" : 12,
            "componentType" : 5126,
            "count" : 6369,
            "type" : "VEC3"
        },
        {
            "bufferView" : 13,
            "componentType" : 5126,
            "count" : 6369,
            "type" : "VEC2"
        }
    ],
    "bufferViews" : [
        {
            "buffer" : 0,
            "byteLength" : 76464,
            "byteOffset" : 0
        },
        {
            "buffer" : 0,
            "byteLength" : 76464,
            "byteOffset" : 76464
        },
        {
            "buffer" : 0,
            "byteLength" : 50976,
            "byteOffset" : 152928
        },
        {
            "buffer" : 0,
            "byteLength" : 73728,
            "byteOffset" : 203904
        },
        {
            "buffer" : 0,
            "byteLength" : 76464,
            "byteOffset" : 277632
        },
        {
            "buffer" : 0,
            "byteLength" : 76464,
            "byteOffset" : 354096
        },
        {
            "buffer" : 0,
            "byteLength" : 50976,
            "byteOffset" : 430560
        },
        {
            "buffer" : 0,
            "byteLength" : 76428,
            "byteOffset" : 481536
        },
        {
            "buffer" : 0,
            "byteLength" : 76428,
            "byteOffset" : 557964
        },
        {
            "buffer" : 0,
            "byteLength" : 50952,
            "byteOffset" : 634392
        },
        {
            "buffer" : 0,
            "byteLength" : 73728,
            "byteOffset" : 685344
        },
        {
            "buffer" : 0,
            "byteLength" : 76428,
            "byteOffset" : 759072
        },
        {
            "buffer" : 0,
            "byteLength" : 76428,
            "byteOffset" : 835500
        },
        {
            "buffer" : 0,
            "byteLength" : 50952,
            "byteOffset" : 911928
        }
    ],
    "buffers" : [
        {
            "byteLength" : 962880,
            "uri" : "data:application/octet-stream;base64,"
        }
    ]
}
